<mxfile host="app.diagrams.net" modified="2024-07-09T17:11:36.862Z" agent="Mozilla/5.0 (Windows NT 10.0; Win64; x64; rv:127.0) Gecko/20100101 Firefox/127.0" version="21.3.8" etag="NwGgZ19ISJ0kuY1AVuI3" type="github">
  <diagram name="Page-1" id="DdglLA1FlACnbnPZemxv">
    <mxGraphModel>
      <root>
        <mxCell id="0" />
        <mxCell id="1" parent="0" />
      </root>
    </mxGraphModel>
  </diagram>
</mxfile>
